<mxfile host="app.diagrams.net" modified="2024-02-27T19:00:10.939Z" agent="Mozilla/5.0 (Windows NT 10.0; Win64; x64) AppleWebKit/537.36 (KHTML, like Gecko) Chrome/122.0.0.0 Safari/537.36" etag="z2_SdGBQ8JudPQCQwqIv" version="23.1.7" type="device">
  <diagram id="C5RBs43oDa-KdzZeNtuy" name="Page-1">
    <mxGraphModel dx="2115" dy="896" grid="1" gridSize="10" guides="1" tooltips="1" connect="1" arrows="1" fold="0" page="0" pageScale="1" pageWidth="1600" pageHeight="1200" background="none" math="0" shadow="0">
      <root>
        <mxCell id="WIyWlLk6GJQsqaUBKTNV-0" />
        <mxCell id="WIyWlLk6GJQsqaUBKTNV-1" parent="WIyWlLk6GJQsqaUBKTNV-0" />
        <mxCell id="HAPGiRMm5gZmks8LCyH1-4" value="ShooterSubsystem" style="swimlane;fontStyle=1;align=center;verticalAlign=top;childLayout=stackLayout;horizontal=1;startSize=26;horizontalStack=0;resizeParent=1;resizeParentMax=0;resizeLast=0;collapsible=1;marginBottom=0;whiteSpace=wrap;html=1;" vertex="1" parent="WIyWlLk6GJQsqaUBKTNV-1">
          <mxGeometry x="60" y="120" width="210" height="100" as="geometry" />
        </mxCell>
        <mxCell id="HAPGiRMm5gZmks8LCyH1-5" value="+ field: type" style="text;strokeColor=none;fillColor=none;align=left;verticalAlign=top;spacingLeft=4;spacingRight=4;overflow=hidden;rotatable=0;points=[[0,0.5],[1,0.5]];portConstraint=eastwest;whiteSpace=wrap;html=1;" vertex="1" parent="HAPGiRMm5gZmks8LCyH1-4">
          <mxGeometry y="26" width="210" height="26" as="geometry" />
        </mxCell>
        <mxCell id="HAPGiRMm5gZmks8LCyH1-6" value="" style="line;strokeWidth=1;fillColor=none;align=left;verticalAlign=middle;spacingTop=-1;spacingLeft=3;spacingRight=3;rotatable=0;labelPosition=right;points=[];portConstraint=eastwest;strokeColor=inherit;" vertex="1" parent="HAPGiRMm5gZmks8LCyH1-4">
          <mxGeometry y="52" width="210" height="8" as="geometry" />
        </mxCell>
        <object label="+ method(type): type" id="HAPGiRMm5gZmks8LCyH1-7">
          <mxCell style="text;strokeColor=none;fillColor=none;align=left;verticalAlign=top;spacingLeft=4;spacingRight=4;overflow=hidden;rotatable=0;points=[[0,0.5],[1,0.5]];portConstraint=eastwest;whiteSpace=wrap;html=1;" vertex="1" parent="HAPGiRMm5gZmks8LCyH1-4">
            <mxGeometry y="60" width="210" height="40" as="geometry" />
          </mxCell>
        </object>
        <mxCell id="HAPGiRMm5gZmks8LCyH1-9" value="ShooterIOSpark" style="swimlane;fontStyle=1;align=center;verticalAlign=top;childLayout=stackLayout;horizontal=1;startSize=26;horizontalStack=0;resizeParent=1;resizeParentMax=0;resizeLast=0;collapsible=1;marginBottom=0;whiteSpace=wrap;html=1;" vertex="1" parent="WIyWlLk6GJQsqaUBKTNV-1">
          <mxGeometry x="-10" y="560" width="160" height="86" as="geometry" />
        </mxCell>
        <mxCell id="HAPGiRMm5gZmks8LCyH1-10" value="+ field: type" style="text;strokeColor=none;fillColor=none;align=left;verticalAlign=top;spacingLeft=4;spacingRight=4;overflow=hidden;rotatable=0;points=[[0,0.5],[1,0.5]];portConstraint=eastwest;whiteSpace=wrap;html=1;" vertex="1" parent="HAPGiRMm5gZmks8LCyH1-9">
          <mxGeometry y="26" width="160" height="26" as="geometry" />
        </mxCell>
        <mxCell id="HAPGiRMm5gZmks8LCyH1-11" value="" style="line;strokeWidth=1;fillColor=none;align=left;verticalAlign=middle;spacingTop=-1;spacingLeft=3;spacingRight=3;rotatable=0;labelPosition=right;points=[];portConstraint=eastwest;strokeColor=inherit;" vertex="1" parent="HAPGiRMm5gZmks8LCyH1-9">
          <mxGeometry y="52" width="160" height="8" as="geometry" />
        </mxCell>
        <mxCell id="HAPGiRMm5gZmks8LCyH1-12" value="+ method(type): type" style="text;strokeColor=none;fillColor=none;align=left;verticalAlign=top;spacingLeft=4;spacingRight=4;overflow=hidden;rotatable=0;points=[[0,0.5],[1,0.5]];portConstraint=eastwest;whiteSpace=wrap;html=1;" vertex="1" parent="HAPGiRMm5gZmks8LCyH1-9">
          <mxGeometry y="60" width="160" height="26" as="geometry" />
        </mxCell>
        <mxCell id="HAPGiRMm5gZmks8LCyH1-16" value="&lt;p style=&quot;margin:0px;margin-top:4px;text-align:center;&quot;&gt;&lt;i&gt;&amp;lt;&amp;lt;Interface&amp;gt;&amp;gt;&lt;/i&gt;&lt;br&gt;&lt;b&gt;ShooterIO&lt;/b&gt;&lt;/p&gt;&lt;hr size=&quot;1&quot;&gt;&lt;p style=&quot;margin:0px;margin-left:4px;&quot;&gt;+ field1: Type&lt;br&gt;+ field2: Type&lt;/p&gt;&lt;hr size=&quot;1&quot;&gt;&lt;p style=&quot;margin:0px;margin-left:4px;&quot;&gt;+ method1(Type): Type&lt;br&gt;+ method2(Type, Type): Type&lt;/p&gt;" style="verticalAlign=top;align=left;overflow=fill;html=1;whiteSpace=wrap;" vertex="1" parent="WIyWlLk6GJQsqaUBKTNV-1">
          <mxGeometry x="70" y="310" width="190" height="140" as="geometry" />
        </mxCell>
        <mxCell id="HAPGiRMm5gZmks8LCyH1-19" value="" style="endArrow=open;startArrow=circlePlus;endFill=0;startFill=0;endSize=8;html=1;rounded=1;jumpStyle=none;shadow=0;edgeStyle=orthogonalEdgeStyle;entryX=1;entryY=0.5;entryDx=0;entryDy=0;exitX=0;exitY=0.5;exitDx=0;exitDy=0;exitPerimeter=0;" edge="1" parent="WIyWlLk6GJQsqaUBKTNV-1" source="HAPGiRMm5gZmks8LCyH1-16" target="HAPGiRMm5gZmks8LCyH1-20">
          <mxGeometry width="160" relative="1" as="geometry">
            <mxPoint x="60" y="380" as="sourcePoint" />
            <mxPoint x="-40" y="345" as="targetPoint" />
          </mxGeometry>
        </mxCell>
        <mxCell id="HAPGiRMm5gZmks8LCyH1-20" value="&lt;p style=&quot;margin:0px;margin-top:4px;text-align:center;&quot;&gt;&lt;b&gt;ShooterIOInputs&lt;/b&gt;&lt;/p&gt;&lt;hr size=&quot;1&quot;&gt;&lt;p style=&quot;margin:0px;margin-left:4px;&quot;&gt;+ field: Type&lt;/p&gt;&lt;hr size=&quot;1&quot;&gt;&lt;p style=&quot;margin:0px;margin-left:4px;&quot;&gt;+ method(): Type&lt;/p&gt;" style="verticalAlign=top;align=left;overflow=fill;html=1;whiteSpace=wrap;" vertex="1" parent="WIyWlLk6GJQsqaUBKTNV-1">
          <mxGeometry x="-160" y="335" width="160" height="90" as="geometry" />
        </mxCell>
        <mxCell id="HAPGiRMm5gZmks8LCyH1-21" value="" style="endArrow=block;dashed=1;endFill=0;endSize=12;html=1;rounded=1;edgeStyle=orthogonalEdgeStyle;exitX=0.5;exitY=0;exitDx=0;exitDy=0;entryX=0.25;entryY=1;entryDx=0;entryDy=0;curved=0;" edge="1" parent="WIyWlLk6GJQsqaUBKTNV-1" source="HAPGiRMm5gZmks8LCyH1-9" target="HAPGiRMm5gZmks8LCyH1-16">
          <mxGeometry width="160" relative="1" as="geometry">
            <mxPoint x="-70" y="470" as="sourcePoint" />
            <mxPoint x="90" y="470" as="targetPoint" />
          </mxGeometry>
        </mxCell>
        <mxCell id="HAPGiRMm5gZmks8LCyH1-22" value="&lt;p style=&quot;margin:0px;margin-top:4px;text-align:center;&quot;&gt;&lt;b&gt;ShooterIOSim&lt;/b&gt;&lt;/p&gt;&lt;hr size=&quot;1&quot;&gt;&lt;p style=&quot;margin:0px;margin-left:4px;&quot;&gt;+ field: Type&lt;/p&gt;&lt;hr size=&quot;1&quot;&gt;&lt;p style=&quot;margin:0px;margin-left:4px;&quot;&gt;+ method(): Type&lt;/p&gt;" style="verticalAlign=top;align=left;overflow=fill;html=1;whiteSpace=wrap;" vertex="1" parent="WIyWlLk6GJQsqaUBKTNV-1">
          <mxGeometry x="170" y="560" width="160" height="90" as="geometry" />
        </mxCell>
        <mxCell id="HAPGiRMm5gZmks8LCyH1-23" value="" style="endArrow=block;dashed=1;endFill=0;endSize=12;html=1;rounded=1;edgeStyle=orthogonalEdgeStyle;exitX=0.5;exitY=0;exitDx=0;exitDy=0;entryX=0.75;entryY=1;entryDx=0;entryDy=0;" edge="1" parent="WIyWlLk6GJQsqaUBKTNV-1" source="HAPGiRMm5gZmks8LCyH1-22" target="HAPGiRMm5gZmks8LCyH1-16">
          <mxGeometry width="160" relative="1" as="geometry">
            <mxPoint x="290" y="540" as="sourcePoint" />
            <mxPoint x="190" y="490" as="targetPoint" />
          </mxGeometry>
        </mxCell>
        <mxCell id="HAPGiRMm5gZmks8LCyH1-24" value="&lt;p style=&quot;margin:0px;margin-top:4px;text-align:center;&quot;&gt;&lt;br&gt;&lt;b&gt;Subsystem (wpilib)&lt;/b&gt;&lt;/p&gt;" style="verticalAlign=top;align=left;overflow=fill;html=1;whiteSpace=wrap;" vertex="1" parent="WIyWlLk6GJQsqaUBKTNV-1">
          <mxGeometry x="-380" y="-130" width="140" height="60" as="geometry" />
        </mxCell>
        <mxCell id="HAPGiRMm5gZmks8LCyH1-25" value="Extends" style="endArrow=block;endSize=16;endFill=0;html=1;rounded=1;edgeStyle=orthogonalEdgeStyle;exitX=0.5;exitY=1;exitDx=0;exitDy=0;entryX=0.5;entryY=0;entryDx=0;entryDy=0;curved=0;" edge="1" parent="WIyWlLk6GJQsqaUBKTNV-1" source="HAPGiRMm5gZmks8LCyH1-24" target="HAPGiRMm5gZmks8LCyH1-4">
          <mxGeometry x="0.8496" width="160" relative="1" as="geometry">
            <mxPoint x="-20" y="80" as="sourcePoint" />
            <mxPoint x="140" y="80" as="targetPoint" />
            <Array as="points">
              <mxPoint x="-310" y="20" />
              <mxPoint x="165" y="20" />
            </Array>
            <mxPoint as="offset" />
          </mxGeometry>
        </mxCell>
        <mxCell id="HAPGiRMm5gZmks8LCyH1-27" value="" style="endArrow=diamondThin;endFill=1;endSize=24;html=1;rounded=0;exitX=0.5;exitY=0;exitDx=0;exitDy=0;edgeStyle=orthogonalEdgeStyle;entryX=0.5;entryY=1;entryDx=0;entryDy=0;entryPerimeter=0;" edge="1" parent="WIyWlLk6GJQsqaUBKTNV-1" source="HAPGiRMm5gZmks8LCyH1-16" target="HAPGiRMm5gZmks8LCyH1-7">
          <mxGeometry width="160" relative="1" as="geometry">
            <mxPoint x="150" y="250" as="sourcePoint" />
            <mxPoint x="165" y="230" as="targetPoint" />
          </mxGeometry>
        </mxCell>
        <mxCell id="HAPGiRMm5gZmks8LCyH1-28" value="" style="endArrow=diamondThin;endFill=1;endSize=24;html=1;rounded=1;edgeStyle=orthogonalEdgeStyle;exitX=0.5;exitY=0;exitDx=0;exitDy=0;curved=0;entryX=0.333;entryY=1;entryDx=0;entryDy=0;entryPerimeter=0;" edge="1" parent="WIyWlLk6GJQsqaUBKTNV-1" source="HAPGiRMm5gZmks8LCyH1-20" target="HAPGiRMm5gZmks8LCyH1-7">
          <mxGeometry width="160" relative="1" as="geometry">
            <mxPoint x="-80" y="300" as="sourcePoint" />
            <mxPoint x="130" y="230" as="targetPoint" />
            <Array as="points">
              <mxPoint x="-80" y="270" />
              <mxPoint x="130" y="270" />
            </Array>
          </mxGeometry>
        </mxCell>
        <mxCell id="HAPGiRMm5gZmks8LCyH1-33" value="IntakeSubsystem" style="swimlane;fontStyle=1;align=center;verticalAlign=top;childLayout=stackLayout;horizontal=1;startSize=26;horizontalStack=0;resizeParent=1;resizeParentMax=0;resizeLast=0;collapsible=1;marginBottom=0;whiteSpace=wrap;html=1;" vertex="1" parent="WIyWlLk6GJQsqaUBKTNV-1">
          <mxGeometry x="580" y="120" width="210" height="100" as="geometry">
            <mxRectangle x="630" y="120" width="150" height="30" as="alternateBounds" />
          </mxGeometry>
        </mxCell>
        <mxCell id="HAPGiRMm5gZmks8LCyH1-34" value="+ field: type" style="text;strokeColor=none;fillColor=none;align=left;verticalAlign=top;spacingLeft=4;spacingRight=4;overflow=hidden;rotatable=0;points=[[0,0.5],[1,0.5]];portConstraint=eastwest;whiteSpace=wrap;html=1;" vertex="1" parent="HAPGiRMm5gZmks8LCyH1-33">
          <mxGeometry y="26" width="210" height="26" as="geometry" />
        </mxCell>
        <mxCell id="HAPGiRMm5gZmks8LCyH1-35" value="" style="line;strokeWidth=1;fillColor=none;align=left;verticalAlign=middle;spacingTop=-1;spacingLeft=3;spacingRight=3;rotatable=0;labelPosition=right;points=[];portConstraint=eastwest;strokeColor=inherit;" vertex="1" parent="HAPGiRMm5gZmks8LCyH1-33">
          <mxGeometry y="52" width="210" height="8" as="geometry" />
        </mxCell>
        <object label="+ method(type): type" id="HAPGiRMm5gZmks8LCyH1-36">
          <mxCell style="text;strokeColor=none;fillColor=none;align=left;verticalAlign=top;spacingLeft=4;spacingRight=4;overflow=hidden;rotatable=0;points=[[0,0.5],[1,0.5]];portConstraint=eastwest;whiteSpace=wrap;html=1;" vertex="1" parent="HAPGiRMm5gZmks8LCyH1-33">
            <mxGeometry y="60" width="210" height="40" as="geometry" />
          </mxCell>
        </object>
        <mxCell id="HAPGiRMm5gZmks8LCyH1-37" value="&lt;b style=&quot;border-color: var(--border-color);&quot;&gt;Intake&lt;/b&gt;IOSpark" style="swimlane;fontStyle=1;align=center;verticalAlign=top;childLayout=stackLayout;horizontal=1;startSize=26;horizontalStack=0;resizeParent=1;resizeParentMax=0;resizeLast=0;collapsible=1;marginBottom=0;whiteSpace=wrap;html=1;" vertex="1" parent="WIyWlLk6GJQsqaUBKTNV-1">
          <mxGeometry x="510" y="560" width="160" height="86" as="geometry" />
        </mxCell>
        <mxCell id="HAPGiRMm5gZmks8LCyH1-38" value="+ field: type" style="text;strokeColor=none;fillColor=none;align=left;verticalAlign=top;spacingLeft=4;spacingRight=4;overflow=hidden;rotatable=0;points=[[0,0.5],[1,0.5]];portConstraint=eastwest;whiteSpace=wrap;html=1;" vertex="1" parent="HAPGiRMm5gZmks8LCyH1-37">
          <mxGeometry y="26" width="160" height="26" as="geometry" />
        </mxCell>
        <mxCell id="HAPGiRMm5gZmks8LCyH1-39" value="" style="line;strokeWidth=1;fillColor=none;align=left;verticalAlign=middle;spacingTop=-1;spacingLeft=3;spacingRight=3;rotatable=0;labelPosition=right;points=[];portConstraint=eastwest;strokeColor=inherit;" vertex="1" parent="HAPGiRMm5gZmks8LCyH1-37">
          <mxGeometry y="52" width="160" height="8" as="geometry" />
        </mxCell>
        <mxCell id="HAPGiRMm5gZmks8LCyH1-40" value="+ method(type): type" style="text;strokeColor=none;fillColor=none;align=left;verticalAlign=top;spacingLeft=4;spacingRight=4;overflow=hidden;rotatable=0;points=[[0,0.5],[1,0.5]];portConstraint=eastwest;whiteSpace=wrap;html=1;" vertex="1" parent="HAPGiRMm5gZmks8LCyH1-37">
          <mxGeometry y="60" width="160" height="26" as="geometry" />
        </mxCell>
        <mxCell id="HAPGiRMm5gZmks8LCyH1-41" value="&lt;p style=&quot;margin:0px;margin-top:4px;text-align:center;&quot;&gt;&lt;i&gt;&amp;lt;&amp;lt;Interface&amp;gt;&amp;gt;&lt;/i&gt;&lt;br&gt;&lt;b&gt;Intake&lt;/b&gt;&lt;b style=&quot;background-color: initial;&quot;&gt;IO&lt;/b&gt;&lt;/p&gt;&lt;hr size=&quot;1&quot;&gt;&lt;p style=&quot;margin:0px;margin-left:4px;&quot;&gt;+ field1: Type&lt;br&gt;+ field2: Type&lt;/p&gt;&lt;hr size=&quot;1&quot;&gt;&lt;p style=&quot;margin:0px;margin-left:4px;&quot;&gt;+ method1(Type): Type&lt;br&gt;+ method2(Type, Type): Type&lt;/p&gt;" style="verticalAlign=top;align=left;overflow=fill;html=1;whiteSpace=wrap;" vertex="1" parent="WIyWlLk6GJQsqaUBKTNV-1">
          <mxGeometry x="590" y="310" width="190" height="140" as="geometry" />
        </mxCell>
        <mxCell id="HAPGiRMm5gZmks8LCyH1-42" value="" style="endArrow=open;startArrow=circlePlus;endFill=0;startFill=0;endSize=8;html=1;rounded=1;jumpStyle=none;shadow=0;edgeStyle=orthogonalEdgeStyle;entryX=1;entryY=0.5;entryDx=0;entryDy=0;exitX=0;exitY=0.5;exitDx=0;exitDy=0;exitPerimeter=0;" edge="1" parent="WIyWlLk6GJQsqaUBKTNV-1" source="HAPGiRMm5gZmks8LCyH1-41" target="HAPGiRMm5gZmks8LCyH1-43">
          <mxGeometry width="160" relative="1" as="geometry">
            <mxPoint x="580" y="380" as="sourcePoint" />
            <mxPoint x="480" y="345" as="targetPoint" />
          </mxGeometry>
        </mxCell>
        <mxCell id="HAPGiRMm5gZmks8LCyH1-43" value="&lt;p style=&quot;margin:0px;margin-top:4px;text-align:center;&quot;&gt;&lt;b&gt;Intake&lt;/b&gt;&lt;b style=&quot;background-color: initial;&quot;&gt;IOInputs&lt;/b&gt;&lt;/p&gt;&lt;hr size=&quot;1&quot;&gt;&lt;p style=&quot;margin:0px;margin-left:4px;&quot;&gt;+ field: Type&lt;/p&gt;&lt;hr size=&quot;1&quot;&gt;&lt;p style=&quot;margin:0px;margin-left:4px;&quot;&gt;+ method(): Type&lt;/p&gt;" style="verticalAlign=top;align=left;overflow=fill;html=1;whiteSpace=wrap;" vertex="1" parent="WIyWlLk6GJQsqaUBKTNV-1">
          <mxGeometry x="360" y="335" width="160" height="90" as="geometry" />
        </mxCell>
        <mxCell id="HAPGiRMm5gZmks8LCyH1-44" value="" style="endArrow=block;dashed=1;endFill=0;endSize=12;html=1;rounded=1;edgeStyle=orthogonalEdgeStyle;exitX=0.5;exitY=0;exitDx=0;exitDy=0;entryX=0.25;entryY=1;entryDx=0;entryDy=0;curved=0;" edge="1" parent="WIyWlLk6GJQsqaUBKTNV-1" source="HAPGiRMm5gZmks8LCyH1-37" target="HAPGiRMm5gZmks8LCyH1-41">
          <mxGeometry width="160" relative="1" as="geometry">
            <mxPoint x="450" y="470" as="sourcePoint" />
            <mxPoint x="610" y="470" as="targetPoint" />
          </mxGeometry>
        </mxCell>
        <mxCell id="HAPGiRMm5gZmks8LCyH1-46" value="" style="endArrow=block;dashed=1;endFill=0;endSize=12;html=1;rounded=1;edgeStyle=orthogonalEdgeStyle;exitX=0.5;exitY=0;exitDx=0;exitDy=0;entryX=0.75;entryY=1;entryDx=0;entryDy=0;" edge="1" parent="WIyWlLk6GJQsqaUBKTNV-1" source="HAPGiRMm5gZmks8LCyH1-49" target="HAPGiRMm5gZmks8LCyH1-41">
          <mxGeometry width="160" relative="1" as="geometry">
            <mxPoint x="780" y="560" as="sourcePoint" />
            <mxPoint x="710" y="490" as="targetPoint" />
          </mxGeometry>
        </mxCell>
        <mxCell id="HAPGiRMm5gZmks8LCyH1-47" value="" style="endArrow=diamondThin;endFill=1;endSize=24;html=1;rounded=0;exitX=0.5;exitY=0;exitDx=0;exitDy=0;edgeStyle=orthogonalEdgeStyle;entryX=0.5;entryY=1;entryDx=0;entryDy=0;entryPerimeter=0;" edge="1" parent="WIyWlLk6GJQsqaUBKTNV-1" source="HAPGiRMm5gZmks8LCyH1-41" target="HAPGiRMm5gZmks8LCyH1-36">
          <mxGeometry width="160" relative="1" as="geometry">
            <mxPoint x="670" y="250" as="sourcePoint" />
            <mxPoint x="685" y="230" as="targetPoint" />
          </mxGeometry>
        </mxCell>
        <mxCell id="HAPGiRMm5gZmks8LCyH1-48" value="" style="endArrow=diamondThin;endFill=1;endSize=24;html=1;rounded=1;edgeStyle=orthogonalEdgeStyle;exitX=0.5;exitY=0;exitDx=0;exitDy=0;entryX=0.329;entryY=1.013;entryDx=0;entryDy=0;entryPerimeter=0;curved=0;" edge="1" parent="WIyWlLk6GJQsqaUBKTNV-1">
          <mxGeometry width="160" relative="1" as="geometry">
            <mxPoint x="440" y="334.4799999999999" as="sourcePoint" />
            <mxPoint x="649.0899999999999" y="220.00000000000009" as="targetPoint" />
            <Array as="points">
              <mxPoint x="440" y="269.48" />
              <mxPoint x="649" y="269.48" />
            </Array>
          </mxGeometry>
        </mxCell>
        <mxCell id="HAPGiRMm5gZmks8LCyH1-49" value="&lt;b style=&quot;border-color: var(--border-color);&quot;&gt;Intake&lt;/b&gt;IOSpark" style="swimlane;fontStyle=1;align=center;verticalAlign=top;childLayout=stackLayout;horizontal=1;startSize=26;horizontalStack=0;resizeParent=1;resizeParentMax=0;resizeLast=0;collapsible=1;marginBottom=0;whiteSpace=wrap;html=1;" vertex="1" parent="WIyWlLk6GJQsqaUBKTNV-1">
          <mxGeometry x="690" y="560" width="160" height="86" as="geometry" />
        </mxCell>
        <mxCell id="HAPGiRMm5gZmks8LCyH1-50" value="+ field: type" style="text;strokeColor=none;fillColor=none;align=left;verticalAlign=top;spacingLeft=4;spacingRight=4;overflow=hidden;rotatable=0;points=[[0,0.5],[1,0.5]];portConstraint=eastwest;whiteSpace=wrap;html=1;" vertex="1" parent="HAPGiRMm5gZmks8LCyH1-49">
          <mxGeometry y="26" width="160" height="26" as="geometry" />
        </mxCell>
        <mxCell id="HAPGiRMm5gZmks8LCyH1-51" value="" style="line;strokeWidth=1;fillColor=none;align=left;verticalAlign=middle;spacingTop=-1;spacingLeft=3;spacingRight=3;rotatable=0;labelPosition=right;points=[];portConstraint=eastwest;strokeColor=inherit;" vertex="1" parent="HAPGiRMm5gZmks8LCyH1-49">
          <mxGeometry y="52" width="160" height="8" as="geometry" />
        </mxCell>
        <mxCell id="HAPGiRMm5gZmks8LCyH1-52" value="+ method(type): type" style="text;strokeColor=none;fillColor=none;align=left;verticalAlign=top;spacingLeft=4;spacingRight=4;overflow=hidden;rotatable=0;points=[[0,0.5],[1,0.5]];portConstraint=eastwest;whiteSpace=wrap;html=1;" vertex="1" parent="HAPGiRMm5gZmks8LCyH1-49">
          <mxGeometry y="60" width="160" height="26" as="geometry" />
        </mxCell>
        <mxCell id="HAPGiRMm5gZmks8LCyH1-54" value="Extends" style="endArrow=block;endSize=16;endFill=0;html=1;rounded=1;strokeColor=default;align=center;verticalAlign=middle;fontFamily=Helvetica;fontSize=11;fontColor=default;labelBackgroundColor=default;edgeStyle=orthogonalEdgeStyle;exitX=0.5;exitY=1;exitDx=0;exitDy=0;entryX=0.5;entryY=0;entryDx=0;entryDy=0;" edge="1" parent="WIyWlLk6GJQsqaUBKTNV-1" source="HAPGiRMm5gZmks8LCyH1-24" target="HAPGiRMm5gZmks8LCyH1-33">
          <mxGeometry x="0.919" width="160" relative="1" as="geometry">
            <mxPoint x="160" y="-60" as="sourcePoint" />
            <mxPoint x="320" y="-60" as="targetPoint" />
            <Array as="points">
              <mxPoint x="-310" y="20" />
              <mxPoint x="685" y="20" />
            </Array>
            <mxPoint as="offset" />
          </mxGeometry>
        </mxCell>
        <mxCell id="HAPGiRMm5gZmks8LCyH1-75" value="DriveSubsystem" style="swimlane;fontStyle=1;align=center;verticalAlign=top;childLayout=stackLayout;horizontal=1;startSize=26;horizontalStack=0;resizeParent=1;resizeParentMax=0;resizeLast=0;collapsible=1;marginBottom=0;whiteSpace=wrap;html=1;" vertex="1" parent="WIyWlLk6GJQsqaUBKTNV-1">
          <mxGeometry x="-520" y="120" width="210" height="100" as="geometry">
            <mxRectangle x="630" y="120" width="150" height="30" as="alternateBounds" />
          </mxGeometry>
        </mxCell>
        <mxCell id="HAPGiRMm5gZmks8LCyH1-76" value="+ field: type" style="text;strokeColor=none;fillColor=none;align=left;verticalAlign=top;spacingLeft=4;spacingRight=4;overflow=hidden;rotatable=0;points=[[0,0.5],[1,0.5]];portConstraint=eastwest;whiteSpace=wrap;html=1;" vertex="1" parent="HAPGiRMm5gZmks8LCyH1-75">
          <mxGeometry y="26" width="210" height="26" as="geometry" />
        </mxCell>
        <mxCell id="HAPGiRMm5gZmks8LCyH1-77" value="" style="line;strokeWidth=1;fillColor=none;align=left;verticalAlign=middle;spacingTop=-1;spacingLeft=3;spacingRight=3;rotatable=0;labelPosition=right;points=[];portConstraint=eastwest;strokeColor=inherit;" vertex="1" parent="HAPGiRMm5gZmks8LCyH1-75">
          <mxGeometry y="52" width="210" height="8" as="geometry" />
        </mxCell>
        <object label="+ method(type): type" id="HAPGiRMm5gZmks8LCyH1-78">
          <mxCell style="text;strokeColor=none;fillColor=none;align=left;verticalAlign=top;spacingLeft=4;spacingRight=4;overflow=hidden;rotatable=0;points=[[0,0.5],[1,0.5]];portConstraint=eastwest;whiteSpace=wrap;html=1;" vertex="1" parent="HAPGiRMm5gZmks8LCyH1-75">
            <mxGeometry y="60" width="210" height="40" as="geometry" />
          </mxCell>
        </object>
        <mxCell id="HAPGiRMm5gZmks8LCyH1-79" value="GyroIOPigeon2" style="swimlane;fontStyle=1;align=center;verticalAlign=top;childLayout=stackLayout;horizontal=1;startSize=26;horizontalStack=0;resizeParent=1;resizeParentMax=0;resizeLast=0;collapsible=1;marginBottom=0;whiteSpace=wrap;html=1;" vertex="1" parent="WIyWlLk6GJQsqaUBKTNV-1">
          <mxGeometry x="-1060" y="520" width="160" height="86" as="geometry" />
        </mxCell>
        <mxCell id="HAPGiRMm5gZmks8LCyH1-80" value="+ field: type" style="text;strokeColor=none;fillColor=none;align=left;verticalAlign=top;spacingLeft=4;spacingRight=4;overflow=hidden;rotatable=0;points=[[0,0.5],[1,0.5]];portConstraint=eastwest;whiteSpace=wrap;html=1;" vertex="1" parent="HAPGiRMm5gZmks8LCyH1-79">
          <mxGeometry y="26" width="160" height="26" as="geometry" />
        </mxCell>
        <mxCell id="HAPGiRMm5gZmks8LCyH1-81" value="" style="line;strokeWidth=1;fillColor=none;align=left;verticalAlign=middle;spacingTop=-1;spacingLeft=3;spacingRight=3;rotatable=0;labelPosition=right;points=[];portConstraint=eastwest;strokeColor=inherit;" vertex="1" parent="HAPGiRMm5gZmks8LCyH1-79">
          <mxGeometry y="52" width="160" height="8" as="geometry" />
        </mxCell>
        <mxCell id="HAPGiRMm5gZmks8LCyH1-82" value="+ method(type): type" style="text;strokeColor=none;fillColor=none;align=left;verticalAlign=top;spacingLeft=4;spacingRight=4;overflow=hidden;rotatable=0;points=[[0,0.5],[1,0.5]];portConstraint=eastwest;whiteSpace=wrap;html=1;" vertex="1" parent="HAPGiRMm5gZmks8LCyH1-79">
          <mxGeometry y="60" width="160" height="26" as="geometry" />
        </mxCell>
        <mxCell id="HAPGiRMm5gZmks8LCyH1-83" value="&lt;p style=&quot;margin:0px;margin-top:4px;text-align:center;&quot;&gt;&lt;i&gt;&amp;lt;&amp;lt;Interface&amp;gt;&amp;gt;&lt;/i&gt;&lt;br&gt;&lt;b style=&quot;background-color: initial;&quot;&gt;Gyro&lt;/b&gt;&lt;b style=&quot;background-color: initial;&quot;&gt;IO&lt;/b&gt;&lt;/p&gt;&lt;hr size=&quot;1&quot;&gt;&lt;p style=&quot;margin:0px;margin-left:4px;&quot;&gt;+ field1: Type&lt;br&gt;+ field2: Type&lt;/p&gt;&lt;hr size=&quot;1&quot;&gt;&lt;p style=&quot;margin:0px;margin-left:4px;&quot;&gt;+ method1(Type): Type&lt;br&gt;+ method2(Type, Type): Type&lt;/p&gt;" style="verticalAlign=top;align=left;overflow=fill;html=1;whiteSpace=wrap;" vertex="1" parent="WIyWlLk6GJQsqaUBKTNV-1">
          <mxGeometry x="-910" y="320" width="190" height="140" as="geometry" />
        </mxCell>
        <mxCell id="HAPGiRMm5gZmks8LCyH1-85" value="&lt;p style=&quot;margin:0px;margin-top:4px;text-align:center;&quot;&gt;&lt;b style=&quot;background-color: initial;&quot;&gt;G&lt;/b&gt;&lt;b style=&quot;background-color: initial;&quot;&gt;yroIOInputs&lt;/b&gt;&lt;/p&gt;&lt;hr size=&quot;1&quot;&gt;&lt;p style=&quot;margin:0px;margin-left:4px;&quot;&gt;+ field: Type&lt;/p&gt;&lt;hr size=&quot;1&quot;&gt;&lt;p style=&quot;margin:0px;margin-left:4px;&quot;&gt;+ method(): Type&lt;/p&gt;" style="verticalAlign=top;align=left;overflow=fill;html=1;whiteSpace=wrap;" vertex="1" parent="WIyWlLk6GJQsqaUBKTNV-1">
          <mxGeometry x="-1120" y="345" width="160" height="90" as="geometry" />
        </mxCell>
        <mxCell id="HAPGiRMm5gZmks8LCyH1-86" value="" style="endArrow=block;dashed=1;endFill=0;endSize=12;html=1;rounded=1;edgeStyle=orthogonalEdgeStyle;exitX=0.5;exitY=0;exitDx=0;exitDy=0;entryX=0.25;entryY=1;entryDx=0;entryDy=0;curved=0;" edge="1" parent="WIyWlLk6GJQsqaUBKTNV-1" source="HAPGiRMm5gZmks8LCyH1-79" target="HAPGiRMm5gZmks8LCyH1-83">
          <mxGeometry width="160" relative="1" as="geometry">
            <mxPoint x="-700" y="470" as="sourcePoint" />
            <mxPoint x="-540" y="470" as="targetPoint" />
          </mxGeometry>
        </mxCell>
        <mxCell id="HAPGiRMm5gZmks8LCyH1-87" value="" style="endArrow=block;dashed=1;endFill=0;endSize=12;html=1;rounded=1;edgeStyle=orthogonalEdgeStyle;exitX=0.5;exitY=0;exitDx=0;exitDy=0;entryX=0.75;entryY=1;entryDx=0;entryDy=0;" edge="1" parent="WIyWlLk6GJQsqaUBKTNV-1" source="HAPGiRMm5gZmks8LCyH1-90" target="HAPGiRMm5gZmks8LCyH1-83">
          <mxGeometry width="160" relative="1" as="geometry">
            <mxPoint x="-370" y="560" as="sourcePoint" />
            <mxPoint x="-440" y="490" as="targetPoint" />
          </mxGeometry>
        </mxCell>
        <mxCell id="HAPGiRMm5gZmks8LCyH1-88" value="" style="endArrow=diamondThin;endFill=1;endSize=24;html=1;rounded=1;exitX=0.5;exitY=0;exitDx=0;exitDy=0;edgeStyle=orthogonalEdgeStyle;curved=0;entryX=0.377;entryY=1.002;entryDx=0;entryDy=0;entryPerimeter=0;" edge="1" parent="WIyWlLk6GJQsqaUBKTNV-1" source="HAPGiRMm5gZmks8LCyH1-83">
          <mxGeometry width="160" relative="1" as="geometry">
            <mxPoint x="-760" y="310" as="sourcePoint" />
            <mxPoint x="-435.8299999999999" y="220.07999999999993" as="targetPoint" />
            <Array as="points">
              <mxPoint x="-815" y="290" />
              <mxPoint x="-436" y="290" />
            </Array>
          </mxGeometry>
        </mxCell>
        <mxCell id="HAPGiRMm5gZmks8LCyH1-90" value="GyroIOSim" style="swimlane;fontStyle=1;align=center;verticalAlign=top;childLayout=stackLayout;horizontal=1;startSize=26;horizontalStack=0;resizeParent=1;resizeParentMax=0;resizeLast=0;collapsible=1;marginBottom=0;whiteSpace=wrap;html=1;" vertex="1" parent="WIyWlLk6GJQsqaUBKTNV-1">
          <mxGeometry x="-880" y="520" width="160" height="86" as="geometry" />
        </mxCell>
        <mxCell id="HAPGiRMm5gZmks8LCyH1-91" value="+ field: type" style="text;strokeColor=none;fillColor=none;align=left;verticalAlign=top;spacingLeft=4;spacingRight=4;overflow=hidden;rotatable=0;points=[[0,0.5],[1,0.5]];portConstraint=eastwest;whiteSpace=wrap;html=1;" vertex="1" parent="HAPGiRMm5gZmks8LCyH1-90">
          <mxGeometry y="26" width="160" height="26" as="geometry" />
        </mxCell>
        <mxCell id="HAPGiRMm5gZmks8LCyH1-92" value="" style="line;strokeWidth=1;fillColor=none;align=left;verticalAlign=middle;spacingTop=-1;spacingLeft=3;spacingRight=3;rotatable=0;labelPosition=right;points=[];portConstraint=eastwest;strokeColor=inherit;" vertex="1" parent="HAPGiRMm5gZmks8LCyH1-90">
          <mxGeometry y="52" width="160" height="8" as="geometry" />
        </mxCell>
        <mxCell id="HAPGiRMm5gZmks8LCyH1-93" value="+ method(type): type" style="text;strokeColor=none;fillColor=none;align=left;verticalAlign=top;spacingLeft=4;spacingRight=4;overflow=hidden;rotatable=0;points=[[0,0.5],[1,0.5]];portConstraint=eastwest;whiteSpace=wrap;html=1;" vertex="1" parent="HAPGiRMm5gZmks8LCyH1-90">
          <mxGeometry y="60" width="160" height="26" as="geometry" />
        </mxCell>
        <mxCell id="HAPGiRMm5gZmks8LCyH1-146" value="Extends" style="endArrow=block;endSize=16;endFill=0;html=1;rounded=1;strokeColor=default;align=center;verticalAlign=middle;fontFamily=Helvetica;fontSize=11;fontColor=default;labelBackgroundColor=default;edgeStyle=orthogonalEdgeStyle;entryX=0.5;entryY=0;entryDx=0;entryDy=0;exitX=0.5;exitY=1;exitDx=0;exitDy=0;" edge="1" parent="WIyWlLk6GJQsqaUBKTNV-1" source="HAPGiRMm5gZmks8LCyH1-24" target="HAPGiRMm5gZmks8LCyH1-75">
          <mxGeometry x="0.661" width="160" relative="1" as="geometry">
            <mxPoint x="-310" y="20" as="sourcePoint" />
            <mxPoint x="-440" y="100" as="targetPoint" />
            <Array as="points">
              <mxPoint x="-310" y="20" />
              <mxPoint x="-415" y="20" />
            </Array>
            <mxPoint as="offset" />
          </mxGeometry>
        </mxCell>
        <mxCell id="HAPGiRMm5gZmks8LCyH1-147" value="" style="endArrow=diamondThin;endFill=1;endSize=24;html=1;rounded=1;strokeColor=default;align=center;verticalAlign=middle;fontFamily=Helvetica;fontSize=11;fontColor=default;labelBackgroundColor=default;edgeStyle=orthogonalEdgeStyle;entryX=0.407;entryY=1.079;entryDx=0;entryDy=0;entryPerimeter=0;exitX=0.5;exitY=0;exitDx=0;exitDy=0;" edge="1" parent="WIyWlLk6GJQsqaUBKTNV-1" source="HAPGiRMm5gZmks8LCyH1-85">
          <mxGeometry width="160" relative="1" as="geometry">
            <mxPoint x="-1160" y="280" as="sourcePoint" />
            <mxPoint x="-454.53" y="219.99999999999997" as="targetPoint" />
            <Array as="points">
              <mxPoint x="-1040" y="270" />
              <mxPoint x="-454" y="270" />
            </Array>
          </mxGeometry>
        </mxCell>
        <mxCell id="HAPGiRMm5gZmks8LCyH1-148" value="Module" style="swimlane;fontStyle=1;align=center;verticalAlign=top;childLayout=stackLayout;horizontal=1;startSize=26;horizontalStack=0;resizeParent=1;resizeParentMax=0;resizeLast=0;collapsible=1;marginBottom=0;whiteSpace=wrap;html=1;fontFamily=Helvetica;fontSize=11;fontColor=default;labelBackgroundColor=default;" vertex="1" parent="WIyWlLk6GJQsqaUBKTNV-1">
          <mxGeometry x="-430" y="320" width="160" height="86" as="geometry" />
        </mxCell>
        <mxCell id="HAPGiRMm5gZmks8LCyH1-149" value="+ field: type" style="text;strokeColor=none;fillColor=none;align=left;verticalAlign=top;spacingLeft=4;spacingRight=4;overflow=hidden;rotatable=0;points=[[0,0.5],[1,0.5]];portConstraint=eastwest;whiteSpace=wrap;html=1;fontFamily=Helvetica;fontSize=11;fontColor=default;labelBackgroundColor=default;" vertex="1" parent="HAPGiRMm5gZmks8LCyH1-148">
          <mxGeometry y="26" width="160" height="26" as="geometry" />
        </mxCell>
        <mxCell id="HAPGiRMm5gZmks8LCyH1-150" value="" style="line;strokeWidth=1;fillColor=none;align=left;verticalAlign=middle;spacingTop=-1;spacingLeft=3;spacingRight=3;rotatable=0;labelPosition=right;points=[];portConstraint=eastwest;strokeColor=inherit;fontFamily=Helvetica;fontSize=11;fontColor=default;labelBackgroundColor=default;" vertex="1" parent="HAPGiRMm5gZmks8LCyH1-148">
          <mxGeometry y="52" width="160" height="8" as="geometry" />
        </mxCell>
        <mxCell id="HAPGiRMm5gZmks8LCyH1-151" value="+ method(type): type" style="text;strokeColor=none;fillColor=none;align=left;verticalAlign=top;spacingLeft=4;spacingRight=4;overflow=hidden;rotatable=0;points=[[0,0.5],[1,0.5]];portConstraint=eastwest;whiteSpace=wrap;html=1;fontFamily=Helvetica;fontSize=11;fontColor=default;labelBackgroundColor=default;" vertex="1" parent="HAPGiRMm5gZmks8LCyH1-148">
          <mxGeometry y="60" width="160" height="26" as="geometry" />
        </mxCell>
        <mxCell id="HAPGiRMm5gZmks8LCyH1-153" value="&lt;p style=&quot;margin:0px;margin-top:4px;text-align:center;&quot;&gt;&lt;i&gt;&amp;lt;&amp;lt;Interface&amp;gt;&amp;gt;&lt;/i&gt;&lt;br&gt;&lt;b style=&quot;background-color: initial;&quot;&gt;Module&lt;/b&gt;&lt;b style=&quot;background-color: initial;&quot;&gt;IO&lt;/b&gt;&lt;/p&gt;&lt;hr size=&quot;1&quot;&gt;&lt;p style=&quot;margin:0px;margin-left:4px;&quot;&gt;+ field1: Type&lt;br&gt;+ field2: Type&lt;/p&gt;&lt;hr size=&quot;1&quot;&gt;&lt;p style=&quot;margin:0px;margin-left:4px;&quot;&gt;+ method1(Type): Type&lt;br&gt;+ method2(Type, Type): Type&lt;/p&gt;" style="verticalAlign=top;align=left;overflow=fill;html=1;whiteSpace=wrap;" vertex="1" parent="WIyWlLk6GJQsqaUBKTNV-1">
          <mxGeometry x="-430" y="480" width="190" height="140" as="geometry" />
        </mxCell>
        <mxCell id="HAPGiRMm5gZmks8LCyH1-154" value="" style="endArrow=diamondThin;endFill=1;endSize=24;html=1;rounded=1;strokeColor=default;align=center;verticalAlign=middle;fontFamily=Helvetica;fontSize=11;fontColor=default;labelBackgroundColor=default;edgeStyle=orthogonalEdgeStyle;exitX=0.5;exitY=0;exitDx=0;exitDy=0;entryX=0.5;entryY=1;entryDx=0;entryDy=0;" edge="1" parent="WIyWlLk6GJQsqaUBKTNV-1" source="HAPGiRMm5gZmks8LCyH1-153" target="HAPGiRMm5gZmks8LCyH1-148">
          <mxGeometry width="160" relative="1" as="geometry">
            <mxPoint x="-570" y="490" as="sourcePoint" />
            <mxPoint x="-410" y="490" as="targetPoint" />
          </mxGeometry>
        </mxCell>
        <mxCell id="HAPGiRMm5gZmks8LCyH1-155" value="&lt;font style=&quot;font-size: 13px;&quot;&gt;4&lt;/font&gt;" style="endArrow=open;html=1;endSize=12;startArrow=diamondThin;startSize=14;startFill=1;edgeStyle=orthogonalEdgeStyle;align=left;verticalAlign=bottom;rounded=1;strokeColor=default;fontFamily=Helvetica;fontSize=11;fontColor=default;labelBackgroundColor=default;entryX=0.5;entryY=0;entryDx=0;entryDy=0;exitX=0.701;exitY=1.104;exitDx=0;exitDy=0;exitPerimeter=0;" edge="1" parent="WIyWlLk6GJQsqaUBKTNV-1" source="HAPGiRMm5gZmks8LCyH1-78" target="HAPGiRMm5gZmks8LCyH1-148">
          <mxGeometry x="-0.5644" y="3" relative="1" as="geometry">
            <mxPoint x="-350" y="620" as="sourcePoint" />
            <mxPoint x="-190" y="620" as="targetPoint" />
            <Array as="points">
              <mxPoint x="-373" y="270" />
              <mxPoint x="-350" y="270" />
            </Array>
            <mxPoint as="offset" />
          </mxGeometry>
        </mxCell>
        <mxCell id="HAPGiRMm5gZmks8LCyH1-156" value="&lt;p style=&quot;margin:0px;margin-top:4px;text-align:center;&quot;&gt;&lt;b style=&quot;background-color: initial;&quot;&gt;Module&lt;/b&gt;&lt;b style=&quot;background-color: initial;&quot;&gt;IOInputs&lt;/b&gt;&lt;/p&gt;&lt;hr size=&quot;1&quot;&gt;&lt;p style=&quot;margin:0px;margin-left:4px;&quot;&gt;+ field: Type&lt;/p&gt;&lt;hr size=&quot;1&quot;&gt;&lt;p style=&quot;margin:0px;margin-left:4px;&quot;&gt;+ method(): Type&lt;/p&gt;" style="verticalAlign=top;align=left;overflow=fill;html=1;whiteSpace=wrap;" vertex="1" parent="WIyWlLk6GJQsqaUBKTNV-1">
          <mxGeometry x="-640" y="505" width="160" height="90" as="geometry" />
        </mxCell>
        <mxCell id="HAPGiRMm5gZmks8LCyH1-157" value="" style="endArrow=open;startArrow=circlePlus;endFill=0;startFill=0;endSize=8;html=1;rounded=1;strokeColor=default;align=center;verticalAlign=middle;fontFamily=Helvetica;fontSize=11;fontColor=default;labelBackgroundColor=default;edgeStyle=orthogonalEdgeStyle;entryX=1;entryY=0.5;entryDx=0;entryDy=0;exitX=0;exitY=0.5;exitDx=0;exitDy=0;" edge="1" parent="WIyWlLk6GJQsqaUBKTNV-1" source="HAPGiRMm5gZmks8LCyH1-153" target="HAPGiRMm5gZmks8LCyH1-156">
          <mxGeometry width="160" relative="1" as="geometry">
            <mxPoint x="-470" y="550" as="sourcePoint" />
            <mxPoint x="-420" y="490" as="targetPoint" />
          </mxGeometry>
        </mxCell>
        <mxCell id="HAPGiRMm5gZmks8LCyH1-158" value="" style="endArrow=open;startArrow=circlePlus;endFill=0;startFill=0;endSize=8;html=1;rounded=1;strokeColor=default;align=center;verticalAlign=middle;fontFamily=Helvetica;fontSize=11;fontColor=default;labelBackgroundColor=default;edgeStyle=orthogonalEdgeStyle;entryX=1;entryY=0.5;entryDx=0;entryDy=0;exitX=0;exitY=0.5;exitDx=0;exitDy=0;" edge="1" parent="WIyWlLk6GJQsqaUBKTNV-1" source="HAPGiRMm5gZmks8LCyH1-83" target="HAPGiRMm5gZmks8LCyH1-85">
          <mxGeometry width="160" relative="1" as="geometry">
            <mxPoint x="-870" y="450" as="sourcePoint" />
            <mxPoint x="-710" y="450" as="targetPoint" />
          </mxGeometry>
        </mxCell>
        <mxCell id="HAPGiRMm5gZmks8LCyH1-161" value="" style="endArrow=diamondThin;endFill=1;endSize=24;html=1;rounded=1;strokeColor=default;align=center;verticalAlign=middle;fontFamily=Helvetica;fontSize=11;fontColor=default;labelBackgroundColor=default;edgeStyle=orthogonalEdgeStyle;exitX=0.5;exitY=0;exitDx=0;exitDy=0;entryX=0.356;entryY=0.993;entryDx=0;entryDy=0;entryPerimeter=0;" edge="1" parent="WIyWlLk6GJQsqaUBKTNV-1" source="HAPGiRMm5gZmks8LCyH1-156" target="HAPGiRMm5gZmks8LCyH1-151">
          <mxGeometry width="160" relative="1" as="geometry">
            <mxPoint x="-500" y="420" as="sourcePoint" />
            <mxPoint x="-340" y="420" as="targetPoint" />
            <Array as="points">
              <mxPoint x="-560" y="440" />
              <mxPoint x="-373" y="440" />
            </Array>
          </mxGeometry>
        </mxCell>
        <mxCell id="HAPGiRMm5gZmks8LCyH1-162" value="Use" style="endArrow=open;endSize=12;dashed=1;html=1;rounded=1;strokeColor=default;align=center;verticalAlign=middle;fontFamily=Helvetica;fontSize=11;fontColor=default;labelBackgroundColor=default;edgeStyle=orthogonalEdgeStyle;exitX=0;exitY=0.5;exitDx=0;exitDy=0;entryX=0.25;entryY=0;entryDx=0;entryDy=0;" edge="1" parent="WIyWlLk6GJQsqaUBKTNV-1" source="HAPGiRMm5gZmks8LCyH1-78" target="HAPGiRMm5gZmks8LCyH1-85">
          <mxGeometry width="160" relative="1" as="geometry">
            <mxPoint x="-750" y="300" as="sourcePoint" />
            <mxPoint x="-590" y="300" as="targetPoint" />
            <Array as="points">
              <mxPoint x="-540" y="200" />
              <mxPoint x="-540" y="250" />
              <mxPoint x="-1080" y="250" />
            </Array>
          </mxGeometry>
        </mxCell>
        <mxCell id="HAPGiRMm5gZmks8LCyH1-165" value="ModuleIOTalonFXPro" style="swimlane;fontStyle=1;align=center;verticalAlign=top;childLayout=stackLayout;horizontal=1;startSize=26;horizontalStack=0;resizeParent=1;resizeParentMax=0;resizeLast=0;collapsible=1;marginBottom=0;whiteSpace=wrap;html=1;" vertex="1" parent="WIyWlLk6GJQsqaUBKTNV-1">
          <mxGeometry x="-340" y="710" width="160" height="86" as="geometry" />
        </mxCell>
        <mxCell id="HAPGiRMm5gZmks8LCyH1-166" value="+ field: type" style="text;strokeColor=none;fillColor=none;align=left;verticalAlign=top;spacingLeft=4;spacingRight=4;overflow=hidden;rotatable=0;points=[[0,0.5],[1,0.5]];portConstraint=eastwest;whiteSpace=wrap;html=1;" vertex="1" parent="HAPGiRMm5gZmks8LCyH1-165">
          <mxGeometry y="26" width="160" height="26" as="geometry" />
        </mxCell>
        <mxCell id="HAPGiRMm5gZmks8LCyH1-167" value="" style="line;strokeWidth=1;fillColor=none;align=left;verticalAlign=middle;spacingTop=-1;spacingLeft=3;spacingRight=3;rotatable=0;labelPosition=right;points=[];portConstraint=eastwest;strokeColor=inherit;" vertex="1" parent="HAPGiRMm5gZmks8LCyH1-165">
          <mxGeometry y="52" width="160" height="8" as="geometry" />
        </mxCell>
        <mxCell id="HAPGiRMm5gZmks8LCyH1-168" value="+ method(type): type" style="text;strokeColor=none;fillColor=none;align=left;verticalAlign=top;spacingLeft=4;spacingRight=4;overflow=hidden;rotatable=0;points=[[0,0.5],[1,0.5]];portConstraint=eastwest;whiteSpace=wrap;html=1;" vertex="1" parent="HAPGiRMm5gZmks8LCyH1-165">
          <mxGeometry y="60" width="160" height="26" as="geometry" />
        </mxCell>
        <mxCell id="HAPGiRMm5gZmks8LCyH1-169" value="ModuleIOSim" style="swimlane;fontStyle=1;align=center;verticalAlign=top;childLayout=stackLayout;horizontal=1;startSize=26;horizontalStack=0;resizeParent=1;resizeParentMax=0;resizeLast=0;collapsible=1;marginBottom=0;whiteSpace=wrap;html=1;" vertex="1" parent="WIyWlLk6GJQsqaUBKTNV-1">
          <mxGeometry x="-520" y="710" width="160" height="86" as="geometry" />
        </mxCell>
        <mxCell id="HAPGiRMm5gZmks8LCyH1-170" value="+ field: type" style="text;strokeColor=none;fillColor=none;align=left;verticalAlign=top;spacingLeft=4;spacingRight=4;overflow=hidden;rotatable=0;points=[[0,0.5],[1,0.5]];portConstraint=eastwest;whiteSpace=wrap;html=1;" vertex="1" parent="HAPGiRMm5gZmks8LCyH1-169">
          <mxGeometry y="26" width="160" height="26" as="geometry" />
        </mxCell>
        <mxCell id="HAPGiRMm5gZmks8LCyH1-171" value="" style="line;strokeWidth=1;fillColor=none;align=left;verticalAlign=middle;spacingTop=-1;spacingLeft=3;spacingRight=3;rotatable=0;labelPosition=right;points=[];portConstraint=eastwest;strokeColor=inherit;" vertex="1" parent="HAPGiRMm5gZmks8LCyH1-169">
          <mxGeometry y="52" width="160" height="8" as="geometry" />
        </mxCell>
        <mxCell id="HAPGiRMm5gZmks8LCyH1-172" value="+ method(type): type" style="text;strokeColor=none;fillColor=none;align=left;verticalAlign=top;spacingLeft=4;spacingRight=4;overflow=hidden;rotatable=0;points=[[0,0.5],[1,0.5]];portConstraint=eastwest;whiteSpace=wrap;html=1;" vertex="1" parent="HAPGiRMm5gZmks8LCyH1-169">
          <mxGeometry y="60" width="160" height="26" as="geometry" />
        </mxCell>
        <mxCell id="HAPGiRMm5gZmks8LCyH1-173" value="" style="endArrow=block;dashed=1;endFill=0;endSize=12;html=1;rounded=1;strokeColor=default;align=center;verticalAlign=middle;fontFamily=Helvetica;fontSize=11;fontColor=default;labelBackgroundColor=default;edgeStyle=orthogonalEdgeStyle;exitX=0.5;exitY=0;exitDx=0;exitDy=0;entryX=0.75;entryY=1;entryDx=0;entryDy=0;" edge="1" parent="WIyWlLk6GJQsqaUBKTNV-1" source="HAPGiRMm5gZmks8LCyH1-165" target="HAPGiRMm5gZmks8LCyH1-153">
          <mxGeometry width="160" relative="1" as="geometry">
            <mxPoint x="-230" y="560" as="sourcePoint" />
            <mxPoint x="-70" y="560" as="targetPoint" />
          </mxGeometry>
        </mxCell>
        <mxCell id="HAPGiRMm5gZmks8LCyH1-174" value="" style="endArrow=block;dashed=1;endFill=0;endSize=12;html=1;rounded=1;strokeColor=default;align=center;verticalAlign=middle;fontFamily=Helvetica;fontSize=11;fontColor=default;labelBackgroundColor=default;edgeStyle=orthogonalEdgeStyle;exitX=0.5;exitY=0;exitDx=0;exitDy=0;entryX=0.25;entryY=1;entryDx=0;entryDy=0;" edge="1" parent="WIyWlLk6GJQsqaUBKTNV-1" source="HAPGiRMm5gZmks8LCyH1-169" target="HAPGiRMm5gZmks8LCyH1-153">
          <mxGeometry width="160" relative="1" as="geometry">
            <mxPoint x="-260" y="560" as="sourcePoint" />
            <mxPoint x="-100" y="560" as="targetPoint" />
          </mxGeometry>
        </mxCell>
      </root>
    </mxGraphModel>
  </diagram>
</mxfile>
